<svg xmlns="http://www.w3.org/2000/svg" width="760" height="420" viewBox="0 0 760 420" font-family='ui-sans-serif,-apple-system,"Apple SD Gothic Neo","Malgun Gothic","Noto Sans KR",sans-serif'>
<rect width="760" height="420" rx="12" fill="#0d1117"/>
<text x="56" y="28" fill="#e6edf3" font-size="15" font-weight="700">탐지 품질 — 임계값 스윕 (휴리스틱-only, 골든셋 25개)</text><line x1="56" y1="364" x2="610" y2="364" stroke="#21262d" stroke-width="1"/><text x="46" y="368" fill="#8b949e" font-size="11" text-anchor="end">0%</text><line x1="56" y1="300.8" x2="610" y2="300.8" stroke="#21262d" stroke-width="1"/><text x="46" y="304.8" fill="#8b949e" font-size="11" text-anchor="end">20%</text><line x1="56" y1="237.6" x2="610" y2="237.6" stroke="#21262d" stroke-width="1"/><text x="46" y="241.6" fill="#8b949e" font-size="11" text-anchor="end">40%</text><line x1="56" y1="174.4" x2="610" y2="174.4" stroke="#21262d" stroke-width="1"/><text x="46" y="178.4" fill="#8b949e" font-size="11" text-anchor="end">60%</text><line x1="56" y1="111.19999999999999" x2="610" y2="111.19999999999999" stroke="#21262d" stroke-width="1"/><text x="46" y="115.19999999999999" fill="#8b949e" font-size="11" text-anchor="end">80%</text><line x1="56" y1="48" x2="610" y2="48" stroke="#21262d" stroke-width="1"/><text x="46" y="52" fill="#8b949e" font-size="11" text-anchor="end">100%</text><text x="56" y="384" fill="#8b949e" font-size="11" text-anchor="middle">35</text><text x="166.8" y="384" fill="#8b949e" font-size="11" text-anchor="middle">45</text><text x="277.6" y="384" fill="#8b949e" font-size="11" text-anchor="middle">55</text><text x="388.4" y="384" fill="#8b949e" font-size="11" text-anchor="middle">65</text><text x="499.20000000000005" y="384" fill="#8b949e" font-size="11" text-anchor="middle">75</text><text x="610" y="384" fill="#8b949e" font-size="11" text-anchor="middle">85</text><text x="333" y="408" fill="#8b949e" font-size="12" text-anchor="middle">격리 임계값</text><line x1="333" y1="48" x2="333" y2="364" stroke="#6e7681" stroke-width="1" stroke-dasharray="4 3"/><text x="333" y="42" fill="#d29922" font-size="11" text-anchor="middle" font-weight="600">기본값 60</text><path d="M56.0 48.0 L111.4 48.0 L166.8 48.0 L222.2 48.0 L277.6 48.0 L333.0 48.0 L388.4 48.0 L443.8 48.0 L499.2 48.0 L554.6 48.0 L610.0 48.0" fill="none" stroke="#3fb950" stroke-width="2.5"/><circle cx="56.0" cy="48.0" r="2.6" fill="#3fb950"/><circle cx="111.4" cy="48.0" r="2.6" fill="#3fb950"/><circle cx="166.8" cy="48.0" r="2.6" fill="#3fb950"/><circle cx="222.2" cy="48.0" r="2.6" fill="#3fb950"/><circle cx="277.6" cy="48.0" r="2.6" fill="#3fb950"/><circle cx="333.0" cy="48.0" r="2.6" fill="#3fb950"/><circle cx="388.4" cy="48.0" r="2.6" fill="#3fb950"/><circle cx="443.8" cy="48.0" r="2.6" fill="#3fb950"/><circle cx="499.2" cy="48.0" r="2.6" fill="#3fb950"/><circle cx="554.6" cy="48.0" r="2.6" fill="#3fb950"/><circle cx="610.0" cy="48.0" r="2.6" fill="#3fb950"/><path d="M56.0 72.3 L111.4 72.3 L166.8 72.3 L222.2 121.0 L277.6 121.0 L333.0 121.0 L388.4 169.7 L443.8 169.7 L499.2 315.3 L554.6 339.7 L610.0 339.7" fill="none" stroke="#58a6ff" stroke-width="2.5"/><circle cx="56.0" cy="72.3" r="2.6" fill="#58a6ff"/><circle cx="111.4" cy="72.3" r="2.6" fill="#58a6ff"/><circle cx="166.8" cy="72.3" r="2.6" fill="#58a6ff"/><circle cx="222.2" cy="121.0" r="2.6" fill="#58a6ff"/><circle cx="277.6" cy="121.0" r="2.6" fill="#58a6ff"/><circle cx="333.0" cy="121.0" r="2.6" fill="#58a6ff"/><circle cx="388.4" cy="169.7" r="2.6" fill="#58a6ff"/><circle cx="443.8" cy="169.7" r="2.6" fill="#58a6ff"/><circle cx="499.2" cy="315.3" r="2.6" fill="#58a6ff"/><circle cx="554.6" cy="339.7" r="2.6" fill="#58a6ff"/><circle cx="610.0" cy="339.7" r="2.6" fill="#58a6ff"/><path d="M56.0 60.6 L111.4 60.6 L166.8 60.6 L222.2 89.1 L277.6 89.1 L333.0 89.1 L388.4 123.2 L443.8 123.2 L499.2 279.6 L554.6 318.8 L610.0 318.8" fill="none" stroke="#d29922" stroke-width="2.5"/><circle cx="56.0" cy="60.6" r="2.6" fill="#d29922"/><circle cx="111.4" cy="60.6" r="2.6" fill="#d29922"/><circle cx="166.8" cy="60.6" r="2.6" fill="#d29922"/><circle cx="222.2" cy="89.1" r="2.6" fill="#d29922"/><circle cx="277.6" cy="89.1" r="2.6" fill="#d29922"/><circle cx="333.0" cy="89.1" r="2.6" fill="#d29922"/><circle cx="388.4" cy="123.2" r="2.6" fill="#d29922"/><circle cx="443.8" cy="123.2" r="2.6" fill="#d29922"/><circle cx="499.2" cy="279.6" r="2.6" fill="#d29922"/><circle cx="554.6" cy="318.8" r="2.6" fill="#d29922"/><circle cx="610.0" cy="318.8" r="2.6" fill="#d29922"/><line x1="634" y1="66" x2="656" y2="66" stroke="#3fb950" stroke-width="3"/><text x="664" y="70" fill="#e6edf3" font-size="12">정밀도</text><line x1="634" y1="92" x2="656" y2="92" stroke="#58a6ff" stroke-width="3"/><text x="664" y="96" fill="#e6edf3" font-size="12">재현율</text><line x1="634" y1="118" x2="656" y2="118" stroke="#d29922" stroke-width="3"/><text x="664" y="122" fill="#e6edf3" font-size="12">F1</text><text x="634" y="334" fill="#8b949e" font-size="11">@60: 정밀도 100%</text><text x="634" y="350" fill="#8b949e" font-size="11">재현율 77% · F1 87%</text></svg>